<?xml version="1.0"?>
<svg xmlns="http://www.w3.org/2000/svg" xmlns:xlink="http://www.w3.org/1999/xlink" xmlns:svgjs="http://svgjs.com/svgjs" version="1.1" width="512" height="512" x="0" y="0" viewBox="0 0 480 480" style="enable-background:new 0 0 512 512" xml:space="preserve" class=""><g><path xmlns="http://www.w3.org/2000/svg" d="m430 63.449219h-29.3125v-13.449219c-.03125-27.601562-22.398438-49.96875-50-50h-300.6875c-27.601562.03125-49.96875 22.398438-50 50v221.378906c.03125 27.601563 22.398438 49.96875 50 50h24.023438v13.449219c.03125 27.601563 22.398437 49.96875 50 50h305.976562c27.601562-.03125 49.96875-22.398437 50-50v-221.378906c-.03125-27.601563-22.398438-49.96875-50-50zm-380-43.449219h300.6875c16.5625.019531 29.984375 13.4375 30 30v166.199219l-48.539062-68.773438c-8.1875-11.738281-21.578126-18.753906-35.890626-18.796875h-.410156c-14.167968-.074218-27.503906 6.6875-35.8125 18.167969l-58.585937 79.988281c-7.714844 10.578125-22.40625 13.167969-33.273438 5.863282l-43.796875-29.3125c-14.839844-9.957032-34.207031-10.03125-49.121094-.1875-.070312.046874-.144531.101562-.210937.144531l-55.046875 38.296875v-191.589844c.019531-16.5625 13.4375-29.980469 30-30zm-30 251.378906v-5.425781l66.355469-46.164063c8.1875-5.347656 18.777343-5.28125 26.898437.167969l43.800782 29.3125c19.765624 13.289063 46.496093 8.578125 60.527343-10.667969l58.589844-79.988281c4.566406-6.308593 11.894531-10.027343 19.683594-9.988281h.226562c7.867188.023438 15.226563 3.882812 19.726563 10.335938l64.882812 91.921874v10.496094.105469l.097656 9.578125c.085938 8.011719-3.039062 15.722656-8.671874 21.417969-5.636719 5.695312-13.316407 8.898437-21.328126 8.898437h-300.789062c-16.5625-.019531-29.980469-13.441406-30-30zm440 63.449219c-.019531 16.558594-13.4375 29.980469-30 30h-305.976562c-16.5625-.019531-29.980469-13.441406-30-30v-13.449219h256.769531c13.351562 0 26.152343-5.339844 35.542969-14.832031 9.390624-9.488281 14.597656-22.34375 14.457031-35.695313l-.101563-9.523437v-177.878906h29.308594c16.5625.015625 29.980469 13.4375 30 30zm0 0" fill="#ffffff" data-original="#000000" style="" class=""/><path xmlns="http://www.w3.org/2000/svg" d="m158.929688 163.550781c29.3125 0 53.070312-23.757812 53.070312-53.066406 0-29.3125-23.757812-53.070313-53.066406-53.070313-29.3125 0-53.070313 23.757813-53.070313 53.066407.03125 29.296875 23.773438 53.035156 53.066407 53.070312zm0-86.136719c18.265624 0 33.070312 14.804688 33.070312 33.066407 0 18.265625-14.804688 33.070312-33.066406 33.070312-18.265625 0-33.070313-14.804687-33.070313-33.070312.019531-18.253907 14.8125-33.046875 33.066407-33.066407zm0 0" fill="#ffffff" data-original="#000000" style="" class=""/></g></svg>
